<svg width="66" height="16" viewBox="0 0 66 16" fill="none" xmlns="http://www.w3.org/2000/svg">
<path d="M12 5.33337C13.1046 5.33337 14 4.43794 14 3.33337C14 2.2288 13.1046 1.33337 12 1.33337C10.8954 1.33337 10 2.2288 10 3.33337C10 4.43794 10.8954 5.33337 12 5.33337Z" fill="#0275B1" stroke="#0275B1" stroke-linecap="round" stroke-linejoin="round"/>
<path d="M4 10C5.10457 10 6 9.10457 6 8C6 6.89543 5.10457 6 4 6C2.89543 6 2 6.89543 2 8C2 9.10457 2.89543 10 4 10Z" fill="#0275B1" stroke="#0275B1" stroke-linecap="round" stroke-linejoin="round"/>
<path d="M12 14.6666C13.1046 14.6666 14 13.7712 14 12.6666C14 11.5621 13.1046 10.6666 12 10.6666C10.8954 10.6666 10 11.5621 10 12.6666C10 13.7712 10.8954 14.6666 12 14.6666Z" fill="#0275B1" stroke="#0275B1" stroke-linecap="round" stroke-linejoin="round"/>
<path d="M5.72681 9.00671L10.2801 11.66" stroke="#0275B1" stroke-linecap="round" stroke-linejoin="round"/>
<path d="M10.2735 4.34009L5.72681 6.99342" stroke="#0275B1" stroke-linecap="round" stroke-linejoin="round"/>
<path d="M27.02 12.12C25.684 12.12 24.516 11.672 23.516 10.776L24.404 9.72C25.244 10.448 26.128 10.812 27.056 10.812C27.512 10.812 27.872 10.716 28.136 10.524C28.408 10.324 28.544 10.06 28.544 9.732C28.544 9.42 28.416 9.172 28.16 8.988C27.904 8.796 27.4 8.612 26.648 8.436C25.672 8.204 24.96 7.912 24.512 7.56C24.072 7.2 23.852 6.652 23.852 5.916C23.852 5.196 24.12 4.612 24.656 4.164C25.192 3.708 25.88 3.48 26.72 3.48C27.872 3.48 28.888 3.832 29.768 4.536L28.976 5.652C28.2 5.076 27.44 4.788 26.696 4.788C26.272 4.788 25.936 4.884 25.688 5.076C25.448 5.268 25.328 5.512 25.328 5.808C25.328 6.136 25.46 6.392 25.724 6.576C25.996 6.752 26.528 6.936 27.32 7.128C28.248 7.352 28.928 7.652 29.36 8.028C29.8 8.404 30.02 8.932 30.02 9.612C30.02 10.388 29.744 11 29.192 11.448C28.64 11.896 27.916 12.12 27.02 12.12ZM31.7558 12V3.6H33.2318V7.092H37.2398V3.6H38.7158V12H37.2398V8.46H33.2318V12H31.7558ZM40.153 12L43.849 3.54H45.217L48.913 12H47.353L46.501 9.972H42.529L41.665 12H40.153ZM43.069 8.664H45.961L44.509 5.304L43.069 8.664ZM50.3534 12V3.6H54.0974C55.0734 3.6 55.8374 3.844 56.3894 4.332C56.9414 4.812 57.2174 5.46 57.2174 6.276C57.2174 6.94 57.0374 7.488 56.6774 7.92C56.3174 8.344 55.8294 8.644 55.2134 8.82L57.4814 12H55.7414L53.6534 9.072H51.8294V12H50.3534ZM51.8294 7.764H53.9894C54.5174 7.764 54.9374 7.636 55.2494 7.38C55.5614 7.124 55.7174 6.776 55.7174 6.336C55.7174 5.888 55.5654 5.544 55.2614 5.304C54.9574 5.064 54.5294 4.944 53.9774 4.944H51.8294V7.764ZM59.0253 12V3.6H65.2533V4.92H60.5013V7.104H64.7133V8.424H60.5013V10.68H65.3133V12H59.0253Z" fill="#181818"/>
</svg>
